<svg width="22" height="22" viewBox="0 0 22 22" fill="none" xmlns="http://www.w3.org/2000/svg">
<g clip-path="url(#clip0_128_637)">
<path d="M17.9033 6.45288V9.89544L20.3152 8.3579L17.9033 6.45288Z" fill="#FF9D9C"/>
<path d="M3.30089 6.45288L0.884766 8.3579L3.30089 9.89966V6.45288Z" fill="#FF9D9C"/>
<path d="M17.9031 9.89545V1.32495H10.5999H3.30078V9.89967L10.5999 14.5545L17.9031 9.89545Z" fill="white"/>
<path d="M20.3154 8.35791L12.7925 13.1564L20.3154 20.7511V8.35791Z" fill="#E9F4BC"/>
<path d="M0.884766 8.35791V20.7511L8.40771 13.1564L0.884766 8.35791Z" fill="#E9F4BC"/>
<path d="M12.7922 13.1562L10.6 14.5544L8.40771 13.1562L0.884766 20.751V20.7552H20.3152V20.751L12.7922 13.1562Z" fill="#FDE4A1"/>
<path d="M20.632 8.35782C20.632 8.35359 20.6278 8.34937 20.6278 8.34937C20.6278 8.34514 20.6278 8.34515 20.6278 8.34092C20.6278 8.3198 20.6194 8.29868 20.6151 8.27756C20.6109 8.25644 20.6067 8.23954 20.5983 8.22265C20.594 8.21843 20.594 8.20998 20.5898 8.20575C20.5856 8.19731 20.5771 8.18886 20.5687 8.18041L20.5645 8.17618C20.5518 8.15929 20.5391 8.14239 20.5222 8.1255C20.518 8.12127 20.5138 8.11705 20.5095 8.11282L18.2201 6.30495V1.32486C18.2201 1.24038 18.1863 1.1559 18.1272 1.10098C18.0681 1.04185 17.9878 1.00806 17.9033 1.00806H5.77623C5.60305 1.00806 5.45943 1.14745 5.45943 1.32486C5.45943 1.49804 5.60305 1.64166 5.77623 1.64166H17.5865V9.71795L10.6 14.1785L3.61777 9.72217V1.64166H4.08663C4.25982 1.64166 4.40343 1.49804 4.40343 1.32486C4.40343 1.14745 4.25982 1.00806 4.08663 1.00806H3.30097C3.21649 1.00806 3.13623 1.04185 3.0771 1.10098C3.01796 1.1559 2.98417 1.24038 2.98417 1.32486V6.2965L0.690538 8.10438C0.686314 8.1086 0.68209 8.11282 0.677866 8.11705C0.66097 8.12972 0.648298 8.15084 0.635626 8.16774C0.631402 8.17196 0.627178 8.17619 0.627178 8.18041C0.622954 8.18463 0.61873 8.18886 0.614506 8.19731C0.610282 8.20575 0.610282 8.20998 0.606058 8.21842C0.59761 8.23532 0.593386 8.25644 0.589162 8.27334C0.584938 8.29446 0.57649 8.31558 0.57649 8.3367C0.57649 8.34515 0.572266 8.34937 0.572266 8.35359V20.7553C0.572266 20.9284 0.715882 21.0721 0.889066 21.0721H20.3195C20.4504 21.0721 20.5645 20.9918 20.6109 20.8778C20.6278 20.8397 20.6363 20.7975 20.6363 20.7553V8.35782H20.632ZM7.90513 13.2112L1.20164 19.9823V8.93228L7.90513 13.2112ZM19.9984 8.93228V19.978L13.295 13.2112L19.9984 8.93228ZM18.2201 7.10751L19.7703 8.32825L18.2201 9.31667V7.10751ZM10.769 14.8205L12.7458 13.5576L19.5549 20.4342H1.64516L8.45425 13.5576L10.4311 14.8205C10.5325 14.8881 10.6676 14.8881 10.769 14.8205ZM2.98417 9.31667L1.43396 8.32825L2.98417 7.10329V9.31667Z" fill="#505050"/>
<path d="M4.93155 1.64166C5.10651 1.64166 5.24835 1.49982 5.24835 1.32486C5.24835 1.14989 5.10651 1.00806 4.93155 1.00806C4.75658 1.00806 4.61475 1.14989 4.61475 1.32486C4.61475 1.49982 4.75658 1.64166 4.93155 1.64166Z" fill="#505050"/>
<path d="M16.0573 2.91724H5.14248C4.9693 2.91724 4.82568 3.06085 4.82568 3.23404C4.82568 3.40722 4.9693 3.55084 5.14248 3.55084H16.0573C16.2305 3.55084 16.3741 3.40722 16.3741 3.23404C16.3741 3.06085 16.2347 2.91724 16.0573 2.91724Z" fill="#505050"/>
<path d="M16.0573 4.70825H5.14248C4.9693 4.70825 4.82568 4.85187 4.82568 5.02505C4.82568 5.19824 4.9693 5.34185 5.14248 5.34185H16.0573C16.2305 5.34185 16.3741 5.19824 16.3741 5.02505C16.3741 4.85187 16.2347 4.70825 16.0573 4.70825Z" fill="#505050"/>
<path d="M16.3741 6.82022C16.3741 6.64703 16.2305 6.50342 16.0573 6.50342H5.14248C4.9693 6.50342 4.82568 6.64703 4.82568 6.82022C4.82568 6.9934 4.9693 7.13702 5.14248 7.13702H16.0573C16.2347 7.13702 16.3741 6.9934 16.3741 6.82022Z" fill="#505050"/>
<path d="M5.14248 8.29858C4.9693 8.29858 4.82568 8.4422 4.82568 8.61538C4.82568 8.78857 4.9693 8.93218 5.14248 8.93218H9.80156C9.97474 8.93218 10.1184 8.78857 10.1184 8.61538C10.1184 8.4422 9.97474 8.29858 9.80156 8.29858H5.14248Z" fill="#505050"/>
</g>
<defs>
<clipPath id="clip0_128_637">
<rect width="21.12" height="21.12" fill="white" transform="translate(0.0400391 0.47998)"/>
</clipPath>
</defs>
</svg>
