<svg width="16" height="28" viewBox="0 0 16 28" fill="none" xmlns="http://www.w3.org/2000/svg">
<path fill-rule="evenodd" clip-rule="evenodd" d="M1 23C0.734784 23 0.480429 23.1054 0.292892 23.2929C0.105356 23.4804 0 23.7348 0 24C0 24.2652 0.105356 24.5196 0.292892 24.7071C0.480429 24.8946 0.734784 25 1 25H9.58594L8.29297 26.293C8.1532 26.4328 8.05802 26.611 8.01948 26.8049C7.98093 26.9989 8.00075 27.1999 8.07642 27.3826C8.15208 27.5653 8.28021 27.7214 8.4446 27.8313C8.60899 27.9412 8.80226 27.9999 9 28H15C15.2652 28 15.5196 27.8946 15.7071 27.7071C15.8946 27.5196 16 27.2652 16 27C16 26.7348 15.8946 26.4804 15.7071 26.2929C15.5196 26.1054 15.2652 26 15 26H11.4141L12.707 24.707C12.8468 24.5672 12.942 24.389 12.9805 24.1951C13.0191 24.0011 12.9993 23.8001 12.9236 23.6174C12.8479 23.4347 12.7198 23.2786 12.5554 23.1687C12.391 23.0588 12.1977 23.0001 12 23H1Z" fill="#00C89F"/>
<path fill-rule="evenodd" clip-rule="evenodd" d="M13.0838 0.220648C12.7933 0.213548 12.5033 0.247487 12.2244 0.32221C11.4808 0.521464 10.8134 1.00248 10.4022 1.71479L0.402167 19.0351C0.324421 19.1693 0.27895 19.3198 0.269355 19.4746L0.0017768 23.9394C-0.00928296 24.1247 0.0314512 24.3095 0.11943 24.4729C0.207408 24.6364 0.339155 24.7722 0.499915 24.865C0.660676 24.9579 0.844104 25.0041 1.02967 24.9986C1.21524 24.9931 1.39561 24.9361 1.5506 24.8339L5.28303 22.3691C5.41231 22.2836 5.51995 22.1693 5.59748 22.0351L15.5975 4.71479C16.42 3.29017 15.9244 1.43963 14.4998 0.617132C14.0546 0.360101 13.568 0.232442 13.0838 0.220648ZM12.9276 2.21284C13.1185 2.20076 13.3166 2.24378 13.4998 2.34955C13.9884 2.63162 14.1471 3.22624 13.8651 3.71479L12.8651 5.44721L11.1346 4.44721L12.1346 2.71479C12.2756 2.47052 12.4949 2.30783 12.7401 2.24213C12.8014 2.22571 12.8639 2.21687 12.9276 2.21284ZM10.1346 6.17963L11.8651 7.17963L3.98421 20.83L2.11701 22.0624L2.25178 19.83L10.1346 6.17963Z" fill="white"/>
</svg>
