<svg width="32" height="22" viewBox="0 0 32 22" fill="none" xmlns="http://www.w3.org/2000/svg">
<path d="M19 22C18.7348 22 18.4804 21.8946 18.2929 21.7071C18.1054 21.5196 18 21.2652 18 21V17C18 16.7348 18.1054 16.4804 18.2929 16.2929C18.4804 16.1054 18.7348 16 19 16C19.2652 16 19.5196 16.1054 19.7071 16.2929C19.8946 16.4804 20 16.7348 20 17V21C20 21.2652 19.8946 21.5196 19.7071 21.7071C19.5196 21.8946 19.2652 22 19 22Z" fill="#77ACF1"/>
<path d="M22 22H16C15.7348 22 15.4804 21.8946 15.2929 21.7071C15.1054 21.5196 15 21.2652 15 21C15 20.7348 15.1054 20.4804 15.2929 20.2929C15.4804 20.1054 15.7348 20 16 20H22C22.2652 20 22.5196 20.1054 22.7071 20.2929C22.8946 20.4804 23 20.7348 23 21C23 21.2652 22.8946 21.5196 22.7071 21.7071C22.5196 21.8946 22.2652 22 22 22Z" fill="#77ACF1"/>
<path d="M7 10H5C4.73478 10 4.48043 9.89464 4.29289 9.70711C4.10536 9.51957 4 9.26522 4 9C4 8.73478 4.10536 8.48043 4.29289 8.29289C4.48043 8.10536 4.73478 8 5 8H7C7.26522 8 7.51957 8.10536 7.70711 8.29289C7.89464 8.48043 8 8.73478 8 9C8 9.26522 7.89464 9.51957 7.70711 9.70711C7.51957 9.89464 7.26522 10 7 10Z" fill="#77ACF1"/>
<path d="M29 16H24.29C24.0248 16 23.7705 15.8946 23.5829 15.7071C23.3954 15.5196 23.29 15.2652 23.29 15C23.29 14.7348 23.3954 14.4804 23.5829 14.2929C23.7705 14.1054 24.0248 14 24.29 14H29C29.2653 14 29.5196 13.8946 29.7071 13.7071C29.8947 13.5196 30 13.2652 30 13V5C30 4.73478 29.8947 4.48043 29.7071 4.29289C29.5196 4.10536 29.2653 4 29 4C28.7348 4 28.4805 3.89464 28.2929 3.70711C28.1054 3.51957 28 3.26522 28 3C28 2.73478 28.1054 2.48043 28.2929 2.29289C28.4805 2.10536 28.7348 2 29 2C29.7957 2 30.5587 2.31607 31.1214 2.87868C31.684 3.44129 32 4.20435 32 5V13C32 13.7956 31.684 14.5587 31.1214 15.1213C30.5587 15.6839 29.7957 16 29 16Z" fill="white"/>
<path d="M9 16H3C2.20435 16 1.44129 15.6839 0.87868 15.1213C0.31607 14.5587 0 13.7956 0 13L0 5C0 4.20435 0.31607 3.44129 0.87868 2.87868C1.44129 2.31607 2.20435 2 3 2H13.71C13.9752 2 14.2296 2.10536 14.4171 2.29289C14.6046 2.48043 14.71 2.73478 14.71 3C14.71 3.26522 14.6046 3.51957 14.4171 3.70711C14.2296 3.89464 13.9752 4 13.71 4H3C2.73478 4 2.48043 4.10536 2.29289 4.29289C2.10536 4.48043 2 4.73478 2 5V13C2 13.2652 2.10536 13.5196 2.29289 13.7071C2.48043 13.8946 2.73478 14 3 14H9C9.26522 14 9.51957 14.1054 9.70711 14.2929C9.89464 14.4804 10 14.7348 10 15C10 15.2652 9.89464 15.5196 9.70711 15.7071C9.51957 15.8946 9.26522 16 9 16Z" fill="white"/>
<path d="M19 18C17.22 18 15.4799 17.4722 13.9999 16.4832C12.5198 15.4943 11.3663 14.0887 10.6851 12.4442C10.0039 10.7996 9.82567 8.99002 10.1729 7.24419C10.5202 5.49836 11.3774 3.89472 12.636 2.63604C13.8947 1.37737 15.4984 0.520204 17.2442 0.172937C18.99 -0.17433 20.7996 0.00389951 22.4442 0.685088C24.0887 1.36628 25.4943 2.51983 26.4832 3.99987C27.4722 5.47991 28 7.21997 28 9C27.9974 11.3861 27.0483 13.6738 25.361 15.361C23.6738 17.0483 21.3861 17.9974 19 18ZM19 2C17.6155 2 16.2622 2.41055 15.111 3.17972C13.9599 3.94889 13.0627 5.04214 12.5328 6.32122C12.003 7.6003 11.8644 9.00777 12.1345 10.3656C12.4046 11.7235 13.0713 12.9708 14.0503 13.9498C15.0292 14.9287 16.2765 15.5954 17.6344 15.8655C18.9922 16.1356 20.3997 15.997 21.6788 15.4672C22.9579 14.9373 24.0511 14.0401 24.8203 12.889C25.5895 11.7379 26 10.3845 26 9C25.9979 7.14414 25.2597 5.36489 23.9474 4.0526C22.6351 2.7403 20.8559 2.00212 19 2Z" fill="white"/>
<path d="M19 14C18.0111 14 17.0444 13.7068 16.2222 13.1574C15.3999 12.6079 14.759 11.8271 14.3806 10.9134C14.0022 9.99979 13.9031 8.99446 14.0961 8.02455C14.289 7.05465 14.7652 6.16373 15.4645 5.46447C16.1637 4.76521 17.0546 4.289 18.0246 4.09608C18.9945 3.90315 19.9998 4.00217 20.9134 4.3806C21.8271 4.75904 22.6079 5.39991 23.1574 6.22215C23.7068 7.0444 24 8.0111 24 9C23.9984 10.3256 23.4711 11.5964 22.5338 12.5338C21.5964 13.4711 20.3256 13.9984 19 14ZM19 6C18.4067 6 17.8266 6.17595 17.3333 6.50559C16.8399 6.83524 16.4554 7.30377 16.2284 7.85195C16.0013 8.40013 15.9419 9.00333 16.0576 9.58527C16.1734 10.1672 16.4591 10.7018 16.8787 11.1213C17.2982 11.5409 17.8328 11.8266 18.4147 11.9424C18.9967 12.0581 19.5999 11.9987 20.1481 11.7716C20.6962 11.5446 21.1648 11.1601 21.4944 10.6667C21.8241 10.1734 22 9.59335 22 9C22 8.20435 21.6839 7.44129 21.1213 6.87868C20.5587 6.31607 19.7957 6 19 6Z" fill="white"/>
</svg>
