<svg width="34" height="33" viewBox="0 0 34 33" fill="none" xmlns="http://www.w3.org/2000/svg">
<g clip-path="url(#clip0_365_1191)">
<path d="M17.0585 32.8416C26.1161 32.8416 33.4588 25.499 33.4588 16.4413C33.4588 7.38368 26.1161 0.0410156 17.0585 0.0410156C8.00087 0.0410156 0.658203 7.38368 0.658203 16.4413C0.658203 25.499 8.00087 32.8416 17.0585 32.8416Z" fill="white"/>
<path d="M24.5 18.4998V21.8331C24.5 22.2751 24.3244 22.699 24.0118 23.0116C23.6993 23.3242 23.2754 23.4998 22.8333 23.4998H11.1667C10.7246 23.4998 10.3007 23.3242 9.98816 23.0116C9.67559 22.699 9.5 22.2751 9.5 21.8331V18.4998" stroke="#252525" stroke-width="1.66667" stroke-linecap="round" stroke-linejoin="round"/>
<path d="M12.8335 14.333L17.0002 18.4997L21.1668 14.333" stroke="#252525" stroke-width="1.66667" stroke-linecap="round" stroke-linejoin="round"/>
<path d="M17 18.5V8.5" stroke="#252525" stroke-width="1.66667" stroke-linecap="round" stroke-linejoin="round"/>
</g>
<defs>
<clipPath id="clip0_365_1191">
<rect width="34" height="33" fill="white"/>
</clipPath>
</defs>
</svg>
