<svg width="34" height="33" viewBox="0 0 34 33" fill="none" xmlns="http://www.w3.org/2000/svg">
<g clip-path="url(#clip0_384_1208)">
<path d="M17.0585 32.8416C26.1161 32.8416 33.4588 25.499 33.4588 16.4413C33.4588 7.38368 26.1161 0.0410156 17.0585 0.0410156C8.00087 0.0410156 0.658203 7.38368 0.658203 16.4413C0.658203 25.499 8.00087 32.8416 17.0585 32.8416Z" fill="white"/>
<path d="M22.842 11.0527L13.9325 19.9623C13.3512 20.5436 13.3512 21.4862 13.9325 22.0675C14.5139 22.6489 15.4564 22.6489 16.0378 22.0675L24.9473 13.158C25.5287 12.5767 25.5287 11.6341 24.9473 11.0527C24.366 10.4714 23.4234 10.4714 22.842 11.0527Z" fill="black"/>
<path d="M9.05283 17.2115L13.9093 22.068C14.4906 22.6493 15.4332 22.6493 16.0146 22.068C16.5959 21.4866 16.5959 20.544 16.0146 19.9627L11.1581 15.1062C10.5767 14.5249 9.63419 14.5249 9.05283 15.1062C8.47148 15.6876 8.47148 16.6302 9.05283 17.2115Z" fill="black"/>
</g>
<defs>
<clipPath id="clip0_384_1208">
<rect width="34" height="33" fill="white"/>
</clipPath>
</defs>
</svg>
