<svg width="29" height="29" viewBox="0 0 29 29" fill="none" xmlns="http://www.w3.org/2000/svg">
<path d="M24.8836 28.6367H20.1438C19.2011 28.6367 18.2969 28.2621 17.6302 27.5955C16.9636 26.9288 16.5891 26.0247 16.5891 25.0819V19.1572C16.5891 18.843 16.4642 18.5416 16.242 18.3193C16.0198 18.0971 15.7184 17.9723 15.4041 17.9723H13.0343C12.72 17.9723 12.4186 18.0971 12.1964 18.3193C11.9742 18.5416 11.8493 18.843 11.8493 19.1572V25.0819C11.8493 26.0247 11.4748 26.9288 10.8081 27.5955C10.1415 28.2621 9.23732 28.6367 8.29453 28.6367H3.5548C2.61201 28.6367 1.70784 28.2621 1.04118 27.5955C0.374531 26.9288 9.44974e-06 26.0247 9.44974e-06 25.0819V15.1995C-0.00138103 14.421 0.150694 13.6498 0.447539 12.93C0.744385 12.2103 1.18018 11.5561 1.73001 11.0049L11.6953 1.03961C12.3618 0.373915 13.2653 0 14.2073 0C15.1494 0 16.0529 0.373915 16.7194 1.03961L26.6847 11.0049C27.2388 11.5542 27.6789 12.2075 27.9799 12.9273C28.2808 13.6471 28.4366 14.4193 28.4384 15.1995V25.0819C28.4384 26.0247 28.0638 26.9288 27.3972 27.5955C26.7305 28.2621 25.8264 28.6367 24.8836 28.6367Z" fill="white"/>
</svg>
