<svg width="50" height="30" viewBox="0 0 50 30" fill="none" xmlns="http://www.w3.org/2000/svg">
<path d="M18.7404 7.54878C18.7404 3.77182 21.6287 0.883545 25.4057 0.883545C29.1826 0.883545 32.0709 3.77182 32.0709 7.54878C32.0709 11.3258 29.1826 14.214 25.4057 14.214C21.6287 14.214 18.7404 11.3258 18.7404 7.54878ZM25.4057 18.6575C15.1856 18.6575 12.0752 25.9893 12.0752 25.9893V29.7663H38.7362V25.9893C38.7362 25.9893 35.6257 18.6575 25.4057 18.6575Z" fill="white"/>
<path d="M39.8464 11.9923C42.914 11.9923 45.4007 9.5055 45.4007 6.43791C45.4007 3.37032 42.914 0.883545 39.8464 0.883545C36.7788 0.883545 34.292 3.37032 34.292 6.43791C34.292 9.5055 36.7788 11.9923 39.8464 11.9923Z" fill="white"/>
<path d="M39.8469 16.4358C37.1808 16.4358 35.1812 17.1023 33.626 18.2132C38.736 20.6571 40.7356 24.8784 40.7356 25.3228V25.545H49.8447V22.6567C49.8447 22.4345 47.4008 16.4358 39.8469 16.4358Z" fill="white"/>
<path d="M39.8464 11.9923C42.914 11.9923 45.4007 9.5055 45.4007 6.43791C45.4007 3.37032 42.914 0.883545 39.8464 0.883545C36.7788 0.883545 34.292 3.37032 34.292 6.43791C34.292 9.5055 36.7788 11.9923 39.8464 11.9923Z" fill="white"/>
<path d="M39.8469 16.4358C37.1808 16.4358 35.1812 17.1023 33.626 18.2132C38.736 20.6571 40.7356 24.8784 40.7356 25.3228V25.545H49.8447V22.6567C49.8447 22.4345 47.4008 16.4358 39.8469 16.4358Z" fill="white"/>
<path d="M10.9635 11.9923C14.0311 11.9923 16.5179 9.5055 16.5179 6.43791C16.5179 3.37032 14.0311 0.883545 10.9635 0.883545C7.89595 0.883545 5.40918 3.37032 5.40918 6.43791C5.40918 9.5055 7.89595 11.9923 10.9635 11.9923Z" fill="white"/>
<path d="M10.9637 16.4358C13.6298 16.4358 15.6293 17.1023 17.1846 18.2132C12.0746 20.6571 10.075 24.8784 10.075 25.3228V25.545H0.96582V22.6567C0.96582 22.4345 3.40974 16.4358 10.9637 16.4358Z" fill="white"/>
</svg>
