<svg width="26" height="35" viewBox="0 0 26 35" fill="none" xmlns="http://www.w3.org/2000/svg">
<path d="M17.484 0.698608V9.19062H25.976L17.484 0.698608ZM15.361 9.19062V0.698608H3.6845C1.92573 0.698608 0.5 2.12434 0.5 3.88311V31.4821C0.5 33.2403 1.92573 34.6666 3.6845 34.6666H22.7915C24.5503 34.6666 25.976 33.2409 25.976 31.4821V11.3136H17.5437C16.3097 11.3136 15.361 10.3649 15.361 9.19062ZM18.5455 28.2976H7.93051C7.34668 28.2976 6.86901 27.82 6.86901 27.2361C6.86901 26.6523 7.34668 26.1746 7.93051 26.1746H18.5455C19.1317 26.1746 19.607 26.6498 19.607 27.2361C19.607 27.82 19.1293 28.2976 18.5455 28.2976ZM18.5455 24.0516H7.93051C7.34668 24.0516 6.86901 23.574 6.86901 22.9901C6.86901 22.4063 7.34668 21.9286 7.93051 21.9286H18.5455C19.1317 21.9286 19.607 22.4038 19.607 22.9901C19.607 23.574 19.1293 24.0516 18.5455 24.0516ZM19.607 18.7441C19.607 19.328 19.1293 19.8056 18.5455 19.8056H7.93051C7.34668 19.8056 6.86901 19.328 6.86901 18.7441C6.86901 18.1603 7.34668 17.6826 7.93051 17.6826H18.5455C19.1293 17.6826 19.607 18.1603 19.607 18.7441Z" fill="white"/>
</svg>
