<svg width="34" height="35" viewBox="0 0 34 35" fill="none" xmlns="http://www.w3.org/2000/svg">
<g clip-path="url(#clip0_164_1001)">
<mask id="mask0_164_1001" style="mask-type:luminance" maskUnits="userSpaceOnUse" x="0" y="0" width="34" height="35">
<path d="M33.9037 0.849365H0.725586V34.0275H33.9037V0.849365Z" fill="white"/>
</mask>
<g mask="url(#mask0_164_1001)">
<path d="M12.0029 16.4004H5.00484C3.87104 16.3995 2.78389 15.9489 1.98185 15.1475C1.17981 14.3461 0.728376 13.2593 0.726562 12.1255L0.726563 5.12752C0.72747 3.99313 1.17851 2.90546 1.98064 2.10332C2.78278 1.30119 3.87045 0.85015 5.00484 0.849243H12.0029C13.1367 0.851057 14.2235 1.30249 15.0248 2.10453C15.8262 2.90657 16.2768 3.99372 16.2777 5.12752V12.1255C16.2759 13.2587 15.8249 14.345 15.0236 15.1463C14.2223 15.9476 13.1361 16.3986 12.0029 16.4004Z" fill="white"/>
<path d="M29.6264 16.4004H22.6284C21.4952 16.3986 20.4089 15.9476 19.6076 15.1463C18.8063 14.345 18.3553 13.2587 18.3535 12.1255V5.12752C18.3544 3.99372 18.805 2.90657 19.6064 2.10453C20.4078 1.30249 21.4946 0.851057 22.6284 0.849243H29.6264C30.7608 0.85015 31.8485 1.30119 32.6506 2.10332C33.4527 2.90546 33.9038 3.99313 33.9047 5.12752V12.1255C33.9029 13.2593 33.4514 14.3461 32.6494 15.1475C31.8473 15.9489 30.7602 16.3995 29.6264 16.4004Z" fill="white"/>
<path d="M26.1291 34.0274C24.5912 34.0274 23.0879 33.5713 21.8092 32.7169C20.5305 31.8625 19.5339 30.6482 18.9454 29.2274C18.3569 27.8066 18.2029 26.2432 18.5029 24.7348C18.8029 23.2265 19.5435 21.841 20.6309 20.7536C21.7184 19.6662 23.1038 18.9256 24.6122 18.6256C26.1205 18.3256 27.6839 18.4796 29.1047 19.0681C30.5255 19.6566 31.7399 20.6532 32.5943 21.9319C33.4486 23.2106 33.9047 24.7139 33.9047 26.2518C33.902 28.3132 33.0819 30.2893 31.6243 31.7469C30.1666 33.2046 28.1905 34.0246 26.1291 34.0274Z" fill="white"/>
<path d="M12.0029 34.0274H5.00484C3.87045 34.0264 2.78278 33.5754 1.98064 32.7733C1.17851 31.9711 0.72747 30.8835 0.726562 29.7491L0.726563 22.7511C0.728376 21.6173 1.17981 20.5305 1.98185 19.7291C2.78389 18.9277 3.87104 18.4771 5.00484 18.4762H12.0029C13.1361 18.478 14.2223 18.929 15.0236 19.7303C15.8249 20.5316 16.2759 21.6178 16.2777 22.7511V29.7491C16.2768 30.8829 15.8262 31.97 15.0248 32.7721C14.2235 33.5741 13.1367 34.0255 12.0029 34.0274Z" fill="white"/>
</g>
</g>
<defs>
<clipPath id="clip0_164_1001">
<rect width="34" height="35" fill="white"/>
</clipPath>
</defs>
</svg>
