<svg width="309" height="305" viewBox="0 0 309 305" fill="none" xmlns="http://www.w3.org/2000/svg">
<path d="M191.278 263.877C252.249 241.681 283.683 174.262 261.487 113.291C239.291 52.3198 171.871 20.8863 110.9 43.0819C49.9296 65.2776 18.4961 132.697 40.6917 193.668C62.8874 254.639 130.307 286.073 191.278 263.877Z" fill="#EEEDF2"/>
<path d="M123.982 54.3252L121.364 50.0011" stroke="white" stroke-width="3.81445" stroke-miterlimit="10" stroke-linecap="round"/>
<path d="M129.995 48.5408L129.676 53.8763" stroke="white" stroke-width="3.81445" stroke-miterlimit="10" stroke-linecap="round"/>
<path d="M138.012 50.4935L135.328 54.4285" stroke="white" stroke-width="3.81445" stroke-miterlimit="10" stroke-linecap="round"/>
<path d="M211.206 190.224L120.608 254.056C117.969 255.886 114.384 255.278 112.502 252.657L31.0719 136.976C29.2413 134.337 29.8499 130.752 32.4704 128.87L123.069 65.0382C125.708 63.2076 129.293 63.8162 131.175 66.4367L212.623 182.169C214.435 184.757 213.845 188.393 211.206 190.224Z" fill="#D3D5E7"/>
<path d="M210.412 197.123L119.814 260.955C117.175 262.786 113.59 262.177 111.708 259.557L30.2272 143.895C28.3966 141.255 29.0052 137.67 31.6256 135.789L122.224 71.9565C124.863 70.126 128.448 70.7346 130.33 73.355L211.829 189.069C213.641 191.656 213.051 195.293 210.412 197.123Z" fill="#DBE7FE" stroke="#1E247E" stroke-width="3.26953" stroke-miterlimit="10" stroke-linecap="round"/>
<path d="M118.104 255.141C116.633 256.198 114.589 255.841 113.583 254.351" stroke="#1E247E" stroke-width="1.63477" stroke-miterlimit="10" stroke-linecap="round"/>
<path d="M40.8945 145.637L46.1466 147.32" stroke="#1E247E" stroke-width="1.3623" stroke-miterlimit="10" stroke-linecap="round"/>
<path d="M39.459 141.694L49.9957 144.991" stroke="#1E247E" stroke-width="1.3623" stroke-miterlimit="10" stroke-linecap="round"/>
<path d="M45.6553 140.076L48.5234 140.946" stroke="#1E247E" stroke-width="1.3623" stroke-miterlimit="10" stroke-linecap="round"/>
<path d="M146.854 173.23C147.967 174.855 147.595 177.02 145.971 178.133L103.048 208.372C101.475 209.467 99.2585 209.114 98.1639 207.54L95.1316 203.193C93.7854 201.248 94.2128 198.599 96.1909 197.183L138.523 167.39C140.147 166.277 142.363 166.63 143.477 168.255L146.854 173.23Z" fill="#F1F6FF"/>
<path d="M133.249 154.813C134.363 156.437 133.991 158.602 132.366 159.715L89.4434 189.955C87.8702 191.049 85.654 190.696 84.5594 189.123L81.5271 184.776C80.1809 182.83 80.6083 180.181 82.5864 178.765L124.918 148.973C126.543 147.86 128.759 148.213 129.872 149.837L133.249 154.813Z" fill="#F1F6FF"/>
<path d="M120.011 136.61C121.124 138.234 120.753 140.399 119.128 141.512L76.2051 171.751C74.6319 172.846 72.4157 172.493 71.3211 170.92L68.2888 166.573C66.9427 164.627 67.37 161.978 69.3482 160.562L111.68 130.77C113.305 129.656 115.521 130.009 116.634 131.634L120.011 136.61Z" fill="#F1F6FF"/>
<path d="M106.867 118.024C107.98 119.649 107.608 121.814 105.984 122.927L63.0606 153.166C61.4874 154.261 59.2712 153.908 58.1766 152.335L55.1443 147.987C53.7981 146.042 54.2255 143.393 56.2036 141.977L98.5356 112.185C100.16 111.071 102.376 111.424 103.489 113.049L106.867 118.024Z" fill="#F1F6FF"/>
<path d="M229.261 231.377L119.937 213.184C116.785 212.65 114.652 209.657 115.186 206.505L138.447 66.9786C138.981 63.8266 141.974 61.6933 145.126 62.2275L254.45 80.4201C257.602 80.9544 259.736 83.9472 259.201 87.0992L235.922 226.575C235.406 229.778 232.413 231.911 229.261 231.377Z" fill="#D3D5E7"/>
<path d="M222.763 235.83L113.439 217.638C110.287 217.103 108.154 214.11 108.688 210.958L131.949 71.4317C132.483 68.2797 135.476 66.1464 138.628 66.6807L247.952 84.8732C251.104 85.4075 253.238 88.4003 252.703 91.5523L229.442 231.079C228.908 234.231 225.915 236.364 222.763 235.83Z" fill="#69AEF8" stroke="#1E247E" stroke-width="3.26953" stroke-miterlimit="10" stroke-linecap="round"/>
<path d="M136.159 74.0745C136.424 72.4123 137.997 71.3177 139.659 71.5825" stroke="#1E247E" stroke-width="1.63477" stroke-miterlimit="10" stroke-linecap="round"/>
<path d="M189.404 111.058L194.708 112.723" stroke="#1E247E" stroke-width="1.3623" stroke-miterlimit="10" stroke-linecap="round"/>
<path d="M187.969 107.115L198.524 110.464" stroke="#1E247E" stroke-width="1.3623" stroke-miterlimit="10" stroke-linecap="round"/>
<path d="M194.165 105.498L197.052 106.418" stroke="#1E247E" stroke-width="1.3623" stroke-miterlimit="10" stroke-linecap="round"/>
<path d="M92.6707 147.201L101.527 150.182L93.6158 173.532L84.7598 170.551C78.339 168.365 74.8728 161.392 77.04 154.92C78.1236 151.684 80.4179 149.225 83.276 147.837C86.0642 146.416 89.4347 146.117 92.6707 147.201Z" fill="white" stroke="#1E247E" stroke-width="2.72461" stroke-miterlimit="10" stroke-linecap="round"/>
<path d="M81.6925 159.896C81.0077 158.811 80.7978 157.438 81.2442 156.116C81.6442 154.984 82.4632 154.048 83.4501 153.573" stroke="#1E247E" stroke-width="1.63477" stroke-miterlimit="10" stroke-linecap="round"/>
<path d="M101.666 150.247L200.688 183.788C200.758 183.82 200.847 183.904 200.833 184.025L193.033 207.045C193.001 207.115 192.917 207.203 192.777 207.138L93.7553 173.597C93.6855 173.565 93.597 173.481 93.6109 173.36L101.41 150.34C101.494 150.252 101.596 150.214 101.666 150.247Z" fill="#F0C330" stroke="#1E247E" stroke-width="2.72461" stroke-miterlimit="10" stroke-linecap="round"/>
<path d="M101.332 167.012L195.465 198.911" stroke="#1E247E" stroke-width="2.72461" stroke-miterlimit="10" stroke-linecap="round"/>
<path d="M104.048 159.18L198.041 191.014" stroke="#1E247E" stroke-width="2.72461" stroke-miterlimit="10" stroke-linecap="round"/>
<path d="M99.118 149.362L91.2178 172.691L98.4436 175.138L106.344 151.809L99.118 149.362Z" fill="#79CAA1" stroke="#1E247E" stroke-width="2.72461" stroke-miterlimit="10" stroke-linecap="round"/>
<path d="M200.987 183.969L211.116 193.794L207.177 205.434L193.173 207.11C193.071 207.147 193.034 207.045 193.066 206.975L200.833 184.025C200.847 183.904 200.968 183.918 200.987 183.969Z" fill="white" stroke="#1E247E" stroke-width="2.72461" stroke-miterlimit="10" stroke-linecap="round"/>
<path d="M211.115 193.794L220.113 202.581C220.643 203.083 220.304 203.903 219.652 204.024L207.143 205.504L211.115 193.794Z" fill="#E09287" stroke="#1E247E" stroke-width="2.72461" stroke-miterlimit="10" stroke-linecap="round"/>
<path d="M226.199 143.476L218.07 168.935C217.978 169.317 217.587 169.517 217.186 169.373L96.0807 130.766C95.6989 130.673 95.4986 130.282 95.6428 129.881L103.772 104.422C103.865 104.04 104.256 103.839 104.656 103.984L225.762 142.591C226.092 142.703 226.292 143.094 226.199 143.476Z" fill="#DA867D" stroke="#1E247E" stroke-width="2.72461" stroke-miterlimit="10" stroke-linecap="round"/>
<path d="M105.663 133.83L108.899 123.606" stroke="#1E247E" stroke-width="2.72461" stroke-miterlimit="10" stroke-linecap="round"/>
<path d="M113.332 136.258L114.969 131.197" stroke="#1E247E" stroke-width="2.72461" stroke-miterlimit="10" stroke-linecap="round"/>
<path d="M121.26 138.765L124.516 128.591" stroke="#1E247E" stroke-width="2.72461" stroke-miterlimit="10" stroke-linecap="round"/>
<path d="M129.157 141.341L130.827 136.21" stroke="#1E247E" stroke-width="2.72461" stroke-miterlimit="10" stroke-linecap="round"/>
<path d="M137.068 143.796L140.323 133.623" stroke="#1E247E" stroke-width="2.72461" stroke-miterlimit="10" stroke-linecap="round"/>
<path d="M145.016 146.354L146.635 141.242" stroke="#1E247E" stroke-width="2.72461" stroke-miterlimit="10" stroke-linecap="round"/>
<path d="M152.685 148.781L155.922 138.557" stroke="#1E247E" stroke-width="2.72461" stroke-miterlimit="10" stroke-linecap="round"/>
<path d="M160.563 151.307L162.182 146.194" stroke="#1E247E" stroke-width="2.72461" stroke-miterlimit="10" stroke-linecap="round"/>
<path d="M168.301 153.767L171.557 143.593" stroke="#1E247E" stroke-width="2.72461" stroke-miterlimit="10" stroke-linecap="round"/>
<path d="M176.249 156.325L177.867 151.212" stroke="#1E247E" stroke-width="2.72461" stroke-miterlimit="10" stroke-linecap="round"/>
<path d="M183.988 158.785L187.225 148.56" stroke="#1E247E" stroke-width="2.72461" stroke-miterlimit="10" stroke-linecap="round"/>
<path d="M191.917 161.291L193.535 156.179" stroke="#1E247E" stroke-width="2.72461" stroke-miterlimit="10" stroke-linecap="round"/>
<path d="M199.725 163.784L202.962 153.559" stroke="#1E247E" stroke-width="2.72461" stroke-miterlimit="10" stroke-linecap="round"/>
<path d="M207.603 166.309L209.273 161.178" stroke="#1E247E" stroke-width="2.72461" stroke-miterlimit="10" stroke-linecap="round"/>
</svg>
